<?xml version="1.0" encoding="utf-8"?>
<!-- Generator: Adobe Illustrator 16.0.0, SVG Export Plug-In . SVG Version: 6.00 Build 0)  -->
<!DOCTYPE svg PUBLIC "-//W3C//DTD SVG 1.1//EN" "http://www.w3.org/Graphics/SVG/1.1/DTD/svg11.dtd">
<svg version="1.1" id="Layer_1" xmlns="http://www.w3.org/2000/svg" xmlns:xlink="http://www.w3.org/1999/xlink" x="0px" y="0px"
	 width="50px" height="50px" viewBox="0 0 50 50" enable-background="new 0 0 50 50" xml:space="preserve">
<g>
	<g>
		<ellipse transform="matrix(0.866 0.5 -0.5 0.866 12.581 -9.4911)" fill="#4E3517" cx="24" cy="18.729" rx="4.888" ry="6.518"/>
		<path fill="#DAC5AA" d="M27.526,13.239c0,0-2.811,0.48-3.598,2.35c-0.787,1.87,0.824,3.021-1.002,5.509s-1.919,3.43-1.919,3.43
			s2.472-0.676,3.275-3.754c0.803-3.079-0.519-3.622,0.664-5.199C26.36,13.691,27.526,13.239,27.526,13.239z"/>
	</g>
	<path fill="#382209" d="M7.757,19.833c0.025-0.332,1.788,3.469,7.885,3.469s13.247-3.575,17.136-3.575
		c3.891,0,5.047,2.208,4.626,4.416s0.105,7.674-5.888,10.303s-13.562,3.785-16.926,0.526C11.227,31.713,7.336,25.406,7.757,19.833z"
		/>
	<g>
		<path fill="none" stroke="#90CAF4" stroke-width="4.4156" stroke-linecap="round" stroke-miterlimit="10" d="M36.827,13.333
			c1.369,2.322,2.154,5.029,2.154,7.919c0,8.622-6.99,15.612-15.612,15.612c-8.622,0-15.612-6.99-15.612-15.612
			c0-2.737,0.704-5.683,1.94-7.919"/>
		<path fill="none" stroke="#90CAF4" stroke-width="3.6039" stroke-linecap="round" stroke-miterlimit="10" d="M39.204,17.743
			c2.301-2.641,7.35,1.505,6.559,5.56c-0.815,4.173-5.362,4.731-7.946,4.785"/>
	</g>
	
		<line fill="none" stroke="#90CAF4" stroke-width="4" stroke-linecap="round" stroke-miterlimit="10" x1="4" y1="37" x2="45" y2="37"/>
</g>
</svg>
