<?xml version="1.0" encoding="utf-8"?>
<!-- Generator: Adobe Illustrator 16.0.0, SVG Export Plug-In . SVG Version: 6.00 Build 0)  -->
<!DOCTYPE svg PUBLIC "-//W3C//DTD SVG 1.1//EN" "http://www.w3.org/Graphics/SVG/1.1/DTD/svg11.dtd">
<svg version="1.1" id="Layer_1" xmlns="http://www.w3.org/2000/svg" xmlns:xlink="http://www.w3.org/1999/xlink" x="0px" y="0px"
	 width="63.797px" height="64px" viewBox="0 0 63.797 64" enable-background="new 0 0 63.797 64" xml:space="preserve">
<g>
	<path fill="#FFFFFF" d="M28.338,36.357c2.998-1.553,5.967-3.094,8.977-4.653c-3.013-1.574-5.984-3.122-8.977-4.685
		C28.338,30.141,28.338,33.23,28.338,36.357z"/>
	<path fill="#FFFFFF" d="M31.899,7c-13.808,0-25,11.194-25,24.999c0,13.806,11.192,25.001,25,25.001s25-11.195,25-25.001
		C56.898,18.194,45.707,7,31.899,7z M45.427,39.803c-0.337,0.713-0.876,1.219-1.565,1.576c-1.857,0.977-20.995,0.963-23.441,0.158
		c-1.09-0.359-1.823-1.071-2.217-2.154c-0.963-2.642-1.246-13.693,0.604-15.869c0.631-0.744,1.443-1.182,2.415-1.285
		c4.985-0.536,20.385-0.461,22.163,0.18c1.038,0.375,1.776,1.055,2.18,2.096C46.615,27.236,46.65,37.171,45.427,39.803z"/>
</g>
</svg>
