<?xml version="1.0" encoding="utf-8"?>
<!-- Generator: Adobe Illustrator 16.0.0, SVG Export Plug-In . SVG Version: 6.00 Build 0)  -->
<!DOCTYPE svg PUBLIC "-//W3C//DTD SVG 1.1//EN" "http://www.w3.org/Graphics/SVG/1.1/DTD/svg11.dtd">
<svg version="1.1" id="Layer_1" xmlns="http://www.w3.org/2000/svg" xmlns:xlink="http://www.w3.org/1999/xlink" x="0px" y="0px"
	 width="63.797px" height="64px" viewBox="0 0 63.797 64" enable-background="new 0 0 63.797 64" xml:space="preserve">
<g>
	<path fill="#FFFFFF" d="M31.899,7c-13.808,0-25,11.194-25,24.999c0,13.806,11.192,25.001,25,25.001s25-11.195,25-25.001
		C56.898,18.194,45.707,7,31.899,7z M45.173,39.805c0,3.07-2.553,5.565-5.694,5.565H24.32c-3.14,0-5.693-2.495-5.693-5.563V24.196
		c0-3.068,2.554-5.564,5.693-5.564h15.159c3.142,0,5.694,2.497,5.694,5.564V39.805z"/>
	<path fill="#FFFFFF" d="M39.479,20.925H24.32v-0.001c-1.877,0-3.402,1.467-3.402,3.271v15.61c0,1.805,1.525,3.272,3.402,3.272
		h15.159c1.875,0,3.403-1.468,3.403-3.272V24.196C42.882,22.392,41.354,20.925,39.479,20.925z M31.899,38.941
		c-3.825,0-6.939-3.114-6.939-6.94c0-3.828,3.114-6.939,6.939-6.939c3.828,0,6.941,3.111,6.941,6.939
		C38.84,35.827,35.727,38.941,31.899,38.941z M39.348,26.335c-0.896,0-1.623-0.727-1.623-1.623s0.727-1.624,1.623-1.624
		c0.897,0.001,1.623,0.728,1.623,1.624S40.244,26.335,39.348,26.335z"/>
	<path fill="#FFFFFF" d="M31.899,27.353c-2.563,0-4.647,2.085-4.647,4.648c0,2.562,2.085,4.647,4.647,4.647
		c2.564,0,4.649-2.086,4.649-4.647C36.548,29.438,34.463,27.353,31.899,27.353z"/>
</g>
</svg>
