<?xml version="1.0" encoding="utf-8"?>
<!-- Generator: Adobe Illustrator 16.0.0, SVG Export Plug-In . SVG Version: 6.00 Build 0)  -->
<!DOCTYPE svg PUBLIC "-//W3C//DTD SVG 1.1//EN" "http://www.w3.org/Graphics/SVG/1.1/DTD/svg11.dtd">
<svg version="1.1" id="Layer_1" xmlns="http://www.w3.org/2000/svg" xmlns:xlink="http://www.w3.org/1999/xlink" x="0px" y="0px"
	 width="63.797px" height="64px" viewBox="0 0 63.797 64" enable-background="new 0 0 63.797 64" xml:space="preserve">
<g>
	<path fill="#FFFFFF" d="M31.899,7c-13.808,0-25,11.194-25,24.999c0,13.806,11.192,25.001,25,25.001s25-11.193,25-25.001
		C56.898,18.194,45.707,7,31.899,7z M39.08,30.149l-0.229,2.473h-4.67c0,7.045,0,15.733,0,15.733h-6.292c0,0,0-8.603,0-15.733
		h-3.147v-2.491v-3.804h3.12v-2.842c0-2.575,1.226-6.596,6.623-6.596l4.863,0.021v5.388c0,0-2.957,0-3.531,0
		c-0.573,0-1.392,0.288-1.392,1.512v2.516v0.001h5.003L39.08,30.149z"/>
</g>
</svg>
